<svg xmlns="http://www.w3.org/2000/svg" xmlns:xlink="http://www.w3.org/1999/xlink" version="1.1" width="256" height="256" viewBox="0 0 256 256" xml:space="preserve">

<defs>
</defs>
<g style="stroke: none; stroke-width: 0; stroke-dasharray: none; stroke-linecap: butt; stroke-linejoin: miter; stroke-miterlimit: 10; fill: none; fill-rule: nonzero; opacity: 1;" transform="translate(1.4065934065934016 1.4065934065934016) scale(2.81 2.81)" >
	<path d="M 88.5 79.665 c -0.828 0 -1.5 -0.672 -1.5 -1.5 V 14.462 c 0 -0.622 -0.506 -1.127 -1.127 -1.127 H 4.127 C 3.506 13.335 3 13.841 3 14.462 v 63.703 c 0 0.828 -0.671 1.5 -1.5 1.5 S 0 78.993 0 78.165 V 14.462 c 0 -2.275 1.852 -4.127 4.127 -4.127 h 81.746 c 2.275 0 4.127 1.852 4.127 4.127 v 63.703 C 90 78.993 89.328 79.665 88.5 79.665 z" style="stroke: none; stroke-width: 1; stroke-dasharray: none; stroke-linecap: butt; stroke-linejoin: miter; stroke-miterlimit: 10; fill: rgb(87,89,93); fill-rule: nonzero; opacity: 1;" transform=" matrix(1 0 0 1 0 0) " stroke-linecap="round" />
	<path d="M 5.121 76.793 c -0.169 0 -0.335 -0.086 -0.429 -0.242 c -0.143 -0.236 -0.066 -0.543 0.17 -0.686 l 7.247 -4.369 V 24.032 c 0 -0.276 0.224 -0.5 0.5 -0.5 h 64.783 c 0.276 0 0.5 0.224 0.5 0.5 v 47.465 l 7.176 4.369 c 0.236 0.144 0.311 0.451 0.167 0.687 c -0.144 0.237 -0.452 0.311 -0.687 0.167 l -7.416 -4.515 c -0.149 -0.091 -0.24 -0.252 -0.24 -0.427 V 24.532 H 13.109 v 47.247 c 0 0.175 -0.092 0.338 -0.242 0.428 l -7.488 4.515 C 5.298 76.769 5.209 76.793 5.121 76.793 z" style="stroke: none; stroke-width: 1; stroke-dasharray: none; stroke-linecap: butt; stroke-linejoin: miter; stroke-miterlimit: 10; fill: rgb(87,89,93); fill-rule: nonzero; opacity: 1;" transform=" matrix(1 0 0 1 0 0) " stroke-linecap="round" />
	<path d="M 12.609 24.532 c -0.131 0 -0.262 -0.051 -0.36 -0.153 L 4.76 16.627 c -0.191 -0.198 -0.186 -0.515 0.013 -0.707 c 0.198 -0.191 0.516 -0.187 0.707 0.012 l 7.488 7.752 c 0.191 0.198 0.186 0.515 -0.013 0.707 C 12.859 24.485 12.734 24.532 12.609 24.532 z" style="stroke: none; stroke-width: 1; stroke-dasharray: none; stroke-linecap: butt; stroke-linejoin: miter; stroke-miterlimit: 10; fill: rgb(87,89,93); fill-rule: nonzero; opacity: 1;" transform=" matrix(1 0 0 1 0 0) " stroke-linecap="round" />
	<path d="M 77.391 24.532 c -0.124 0 -0.249 -0.046 -0.346 -0.139 c -0.199 -0.191 -0.206 -0.507 -0.016 -0.707 l 7.416 -7.752 c 0.191 -0.198 0.508 -0.206 0.707 -0.016 c 0.199 0.191 0.206 0.507 0.016 0.707 l -7.416 7.752 C 77.654 24.48 77.523 24.532 77.391 24.532 z" style="stroke: none; stroke-width: 1; stroke-dasharray: none; stroke-linecap: butt; stroke-linejoin: miter; stroke-miterlimit: 10; fill: rgb(87,89,93); fill-rule: nonzero; opacity: 1;" transform=" matrix(1 0 0 1 0 0) " stroke-linecap="round" />
	<path d="M 45 72.278 c -0.276 0 -0.5 -0.224 -0.5 -0.5 V 16.28 c 0 -0.276 0.224 -0.5 0.5 -0.5 s 0.5 0.224 0.5 0.5 v 55.499 C 45.5 72.055 45.277 72.278 45 72.278 z" style="stroke: none; stroke-width: 1; stroke-dasharray: none; stroke-linecap: butt; stroke-linejoin: miter; stroke-miterlimit: 10; fill: rgb(87,89,93); fill-rule: nonzero; opacity: 1;" transform=" matrix(1 0 0 1 0 0) " stroke-linecap="round" />
	<path d="M 29.092 72.278 c -0.276 0 -0.5 -0.224 -0.5 -0.5 V 24.115 l -2.618 -7.673 c -0.089 -0.262 0.05 -0.546 0.312 -0.635 c 0.261 -0.092 0.546 0.051 0.635 0.312 l 2.645 7.752 c 0.018 0.052 0.027 0.107 0.027 0.162 v 47.747 C 29.592 72.055 29.369 72.278 29.092 72.278 z" style="stroke: none; stroke-width: 1; stroke-dasharray: none; stroke-linecap: butt; stroke-linejoin: miter; stroke-miterlimit: 10; fill: rgb(87,89,93); fill-rule: nonzero; opacity: 1;" transform=" matrix(1 0 0 1 0 0) " stroke-linecap="round" />
	<path d="M 61.166 72.278 c -0.276 0 -0.5 -0.224 -0.5 -0.5 V 24.032 c 0 -0.048 0.007 -0.097 0.021 -0.143 l 2.314 -7.752 c 0.078 -0.265 0.355 -0.415 0.622 -0.336 c 0.265 0.079 0.415 0.357 0.336 0.622 l -2.293 7.682 v 47.673 C 61.666 72.055 61.443 72.278 61.166 72.278 z" style="stroke: none; stroke-width: 1; stroke-dasharray: none; stroke-linecap: butt; stroke-linejoin: miter; stroke-miterlimit: 10; fill: rgb(87,89,93); fill-rule: nonzero; opacity: 1;" transform=" matrix(1 0 0 1 0 0) " stroke-linecap="round" />
	<path d="M 77.391 37.583 H 12.609 c -0.084 0 -0.167 -0.021 -0.24 -0.062 L 4.88 33.416 c -0.242 -0.133 -0.331 -0.437 -0.198 -0.679 s 0.436 -0.331 0.679 -0.198 l 7.376 4.044 h 64.549 l 7.319 -3.236 c 0.25 -0.111 0.548 0.002 0.659 0.255 c 0.112 0.252 -0.002 0.548 -0.255 0.66 l -7.416 3.279 C 77.53 37.568 77.461 37.583 77.391 37.583 z" style="stroke: none; stroke-width: 1; stroke-dasharray: none; stroke-linecap: butt; stroke-linejoin: miter; stroke-miterlimit: 10; fill: rgb(87,89,93); fill-rule: nonzero; opacity: 1;" transform=" matrix(1 0 0 1 0 0) " stroke-linecap="round" />
	<path d="M 84.807 48.825 H 5.12 c -0.276 0 -0.5 -0.224 -0.5 -0.5 s 0.224 -0.5 0.5 -0.5 h 79.687 c 0.276 0 0.5 0.224 0.5 0.5 S 85.084 48.825 84.807 48.825 z" style="stroke: none; stroke-width: 1; stroke-dasharray: none; stroke-linecap: butt; stroke-linejoin: miter; stroke-miterlimit: 10; fill: rgb(87,89,93); fill-rule: nonzero; opacity: 1;" transform=" matrix(1 0 0 1 0 0) " stroke-linecap="round" />
	<path d="M 84.807 62.575 c -0.043 0 -0.087 -0.006 -0.131 -0.018 l -7.352 -1.994 H 12.609 l -7.41 1.18 c -0.274 0.043 -0.529 -0.144 -0.572 -0.416 c -0.043 -0.272 0.143 -0.528 0.416 -0.572 l 7.488 -1.186 l 64.861 -0.006 c 0.044 0 0.088 0.006 0.131 0.018 l 7.416 2.012 c 0.267 0.072 0.424 0.347 0.352 0.613 C 85.229 62.429 85.028 62.575 84.807 62.575 z" style="stroke: none; stroke-width: 1; stroke-dasharray: none; stroke-linecap: butt; stroke-linejoin: miter; stroke-miterlimit: 10; fill: rgb(87,89,93); fill-rule: nonzero; opacity: 1;" transform=" matrix(1 0 0 1 0 0) " stroke-linecap="round" />
	<path d="M 77.391 72.278 H 12.609 c -0.276 0 -0.5 -0.224 -0.5 -0.5 s 0.224 -0.5 0.5 -0.5 h 64.783 c 0.276 0 0.5 0.224 0.5 0.5 S 77.668 72.278 77.391 72.278 z" style="stroke: none; stroke-width: 1; stroke-dasharray: none; stroke-linecap: butt; stroke-linejoin: miter; stroke-miterlimit: 10; fill: rgb(87,89,93); fill-rule: nonzero; opacity: 1;" transform=" matrix(1 0 0 1 0 0) " stroke-linecap="round" />
</g>
</svg>