<svg xmlns="http://www.w3.org/2000/svg" xmlns:xlink="http://www.w3.org/1999/xlink" version="1.1" width="256" height="256" viewBox="0 0 256 256" xml:space="preserve">

<defs>
</defs>
<g style="stroke: none; stroke-width: 0; stroke-dasharray: none; stroke-linecap: butt; stroke-linejoin: miter; stroke-miterlimit: 10; fill: none; fill-rule: nonzero; opacity: 1;" transform="translate(1.4065934065934016 1.4065934065934016) scale(2.81 2.81)" >
	<path d="M 25.652 46 H 1 c -0.552 0 -1 -0.448 -1 -1 s 0.448 -1 1 -1 h 24.652 c 0.552 0 1 0.448 1 1 S 26.204 46 25.652 46 z" style="stroke: none; stroke-width: 1; stroke-dasharray: none; stroke-linecap: butt; stroke-linejoin: miter; stroke-miterlimit: 10; fill: rgb(63,64,66); fill-rule: nonzero; opacity: 1;" transform=" matrix(1 0 0 1 0 0) " stroke-linecap="round" />
	<path d="M 28.693 35.631 H 1 c -0.552 0 -1 -0.448 -1 -1 s 0.448 -1 1 -1 h 27.693 c 0.552 0 1 0.448 1 1 S 29.246 35.631 28.693 35.631 z" style="stroke: none; stroke-width: 1; stroke-dasharray: none; stroke-linecap: butt; stroke-linejoin: miter; stroke-miterlimit: 10; fill: rgb(63,64,66); fill-rule: nonzero; opacity: 1;" transform=" matrix(1 0 0 1 0 0) " stroke-linecap="round" />
	<path d="M 28.693 56.369 H 1 c -0.552 0 -1 -0.447 -1 -1 s 0.448 -1 1 -1 h 27.693 c 0.552 0 1 0.447 1 1 S 29.246 56.369 28.693 56.369 z" style="stroke: none; stroke-width: 1; stroke-dasharray: none; stroke-linecap: butt; stroke-linejoin: miter; stroke-miterlimit: 10; fill: rgb(63,64,66); fill-rule: nonzero; opacity: 1;" transform=" matrix(1 0 0 1 0 0) " stroke-linecap="round" />
	<path d="M 81.439 25.066 c -4.807 -4.565 -11.259 -7.407 -18.378 -7.546 l 1.61 6.66 l 8.202 3.361 L 81.439 25.066 z" style="stroke: none; stroke-width: 1; stroke-dasharray: none; stroke-linecap: butt; stroke-linejoin: miter; stroke-miterlimit: 10; fill: rgb(241,241,241); fill-rule: nonzero; opacity: 1;" transform=" matrix(1 0 0 1 0 0) " stroke-linecap="round" />
	<polygon points="78.46,54.85 81.11,45.98 73.21,38.92 64.04,41.65 61.01,50.63 66.16,56.51 " style="stroke: none; stroke-width: 1; stroke-dasharray: none; stroke-linecap: butt; stroke-linejoin: miter; stroke-miterlimit: 10; fill: rgb(241,241,241); fill-rule: nonzero; opacity: 1;" transform="  matrix(1 0 0 1 0 0) "/>
	<polygon points="62.28,41.06 56.84,33.77 45.28,36.18 43.33,43.11 50.99,51.97 59.24,50.07 " style="stroke: none; stroke-width: 1; stroke-dasharray: none; stroke-linecap: butt; stroke-linejoin: miter; stroke-miterlimit: 10; fill: rgb(241,241,241); fill-rule: nonzero; opacity: 1;" transform="  matrix(1 0 0 1 0 0) "/>
	<path d="M 82.914 26.569 l -8.661 2.503 v 8.299 l 8.435 7.533 l 7.297 -0.549 C 89.826 37.518 87.187 31.296 82.914 26.569 z" style="stroke: none; stroke-width: 1; stroke-dasharray: none; stroke-linecap: butt; stroke-linejoin: miter; stroke-miterlimit: 10; fill: rgb(241,241,241); fill-rule: nonzero; opacity: 1;" transform=" matrix(1 0 0 1 0 0) " stroke-linecap="round" />
	<path d="M 61.16 17.547 c -8.449 0.411 -15.898 4.628 -20.66 10.981 l 4.437 5.825 l 11.603 -2.412 l 6.292 -7.477 L 61.16 17.547 z" style="stroke: none; stroke-width: 1; stroke-dasharray: none; stroke-linecap: butt; stroke-linejoin: miter; stroke-miterlimit: 10; fill: rgb(241,241,241); fill-rule: nonzero; opacity: 1;" transform=" matrix(1 0 0 1 0 0) " stroke-linecap="round" />
	<path d="M 61.386 71.607 v -0.082 l -1.058 -6.257 l -9.417 -2.804 l -5.85 3.747 c 4.517 3.721 10.228 6.041 16.485 6.258 L 61.4 71.607 H 61.386 z" style="stroke: none; stroke-width: 1; stroke-dasharray: none; stroke-linecap: butt; stroke-linejoin: miter; stroke-miterlimit: 10; fill: rgb(241,241,241); fill-rule: nonzero; opacity: 1;" transform=" matrix(1 0 0 1 0 0) " stroke-linecap="round" />
	<path d="M 49.974 60.864 v -7.237 l -8.069 -9.335 L 35.021 45 c 0 7.855 3.299 14.935 8.581 19.945 L 49.974 60.864 z" style="stroke: none; stroke-width: 1; stroke-dasharray: none; stroke-linecap: butt; stroke-linejoin: miter; stroke-miterlimit: 10; fill: rgb(241,241,241); fill-rule: nonzero; opacity: 1;" transform=" matrix(1 0 0 1 0 0) " stroke-linecap="round" />
	<path d="M 66.597 58.325 l -4.471 6.458 l 1.3 7.687 c 7.527 -0.246 14.287 -3.512 19.106 -8.634 l -3.959 -7.135 L 66.597 58.325 z" style="stroke: none; stroke-width: 1; stroke-dasharray: none; stroke-linecap: butt; stroke-linejoin: miter; stroke-miterlimit: 10; fill: rgb(241,241,241); fill-rule: nonzero; opacity: 1;" transform=" matrix(1 0 0 1 0 0) " stroke-linecap="round" />
	<path d="M 61.516 18.5 c -0.033 0.034 -0.068 0.067 -0.101 0.101 l -0.255 -1.054 c -8.449 0.411 -15.898 4.628 -20.66 10.981 l 4.437 5.825 l 6.261 -1.301 c 2.087 -4.898 5.532 -9.746 10.318 -14.546 V 18.5 z" style="stroke: none; stroke-width: 1; stroke-dasharray: none; stroke-linecap: butt; stroke-linejoin: miter; stroke-miterlimit: 10; fill: rgb(219,219,219); fill-rule: nonzero; opacity: 1;" transform=" matrix(1 0 0 1 0 0) " stroke-linecap="round" />
	<path d="M 45.278 36.176 l -1.947 6.93 l 6.003 6.946 c -1.005 -5.03 -0.646 -10.011 1.07 -14.942 L 45.278 36.176 z" style="stroke: none; stroke-width: 1; stroke-dasharray: none; stroke-linecap: butt; stroke-linejoin: miter; stroke-miterlimit: 10; fill: rgb(219,219,219); fill-rule: nonzero; opacity: 1;" transform=" matrix(1 0 0 1 0 0) " stroke-linecap="round" />
	<path d="M 61.386 71.607 v -0.082 l -0.049 -0.291 c 0.016 0.017 0.033 0.035 0.049 0.053 v -0.019 c -2.315 -2.503 -4.335 -4.995 -6.011 -7.475 c 0 0 0 0 0 0.001 l -4.465 -1.329 l -5.85 3.747 c 4.517 3.721 10.228 6.041 16.485 6.258 L 61.4 71.607 H 61.386 z" style="stroke: none; stroke-width: 1; stroke-dasharray: none; stroke-linecap: butt; stroke-linejoin: miter; stroke-miterlimit: 10; fill: rgb(219,219,219); fill-rule: nonzero; opacity: 1;" transform=" matrix(1 0 0 1 0 0) " stroke-linecap="round" />
	<path d="M 49.974 60.864 v -7.237 l -8.069 -9.335 L 35.021 45 c 0 7.855 3.299 14.935 8.581 19.945 L 49.974 60.864 z" style="stroke: none; stroke-width: 1; stroke-dasharray: none; stroke-linecap: butt; stroke-linejoin: miter; stroke-miterlimit: 10; fill: rgb(219,219,219); fill-rule: nonzero; opacity: 1;" transform=" matrix(1 0 0 1 0 0) " stroke-linecap="round" />
	<path d="M 49.974 53.627 v 7.237 l -6.372 4.081 c 0.465 0.441 0.941 0.872 1.437 1.281 l 5.872 -3.761 l 9.417 2.804 l 1.218 7.201 c 0.322 0.011 0.644 0.025 0.969 0.025 c 0.305 0 0.608 -0.013 0.911 -0.023 l -1.3 -7.688 l 4.471 -6.458 l 11.976 -1.624 l 3.959 7.136 c 0.042 -0.044 0.084 -0.087 0.126 -0.132 c 0.139 -0.148 0.273 -0.299 0.408 -0.449 c 1.95 -2.194 3.556 -4.699 4.729 -7.436 c 0.053 -0.127 0.107 -0.255 0.158 -0.383 c 0.068 -0.166 0.132 -0.333 0.197 -0.5 c 1.174 -3.12 1.79 -6.546 1.851 -10.276 c -0.001 -0.103 -0.005 -0.205 -0.008 -0.308 l -7.304 0.55 l -8.435 -7.533 v -8.299 l 8.661 -2.503 c -0.471 -0.521 -0.966 -1.019 -1.475 -1.503 l -8.566 2.475 l -8.202 -3.361 l -1.61 -6.66 c -0.182 -0.004 -0.363 -0.014 -0.546 -0.014 c -0.455 0 -0.907 0.012 -1.356 0.034 l 1.674 6.924 l -6.292 7.477 l -11.603 2.412 L 40.5 28.528 c -0.002 0.002 -0.003 0.004 -0.005 0.006 c -1.779 2.441 -3.098 4.969 -3.997 7.576 c -0.06 0.177 -0.123 0.353 -0.18 0.531 c -0.049 0.153 -0.095 0.308 -0.141 0.462 c -0.084 0.279 -0.164 0.56 -0.239 0.842 c -0.028 0.105 -0.056 0.211 -0.083 0.316 c -0.093 0.37 -0.18 0.742 -0.258 1.117 c -0.007 0.035 -0.016 0.069 -0.023 0.104 c -0.088 0.431 -0.166 0.866 -0.233 1.305 c -0.007 0.046 -0.012 0.092 -0.019 0.137 c -0.053 0.359 -0.099 0.721 -0.138 1.085 c -0.016 0.145 -0.029 0.291 -0.042 0.436 c -0.025 0.274 -0.046 0.55 -0.063 0.826 c -0.01 0.16 -0.021 0.32 -0.028 0.481 c -0.018 0.413 -0.032 0.828 -0.032 1.246 l 6.884 -0.709 L 49.974 53.627 z M 64.04 41.646 l 9.17 -2.722 l 7.902 7.057 l -2.653 8.866 l -12.302 1.668 l -5.146 -5.881 L 64.04 41.646 z M 45.278 36.176 l 11.566 -2.404 l 5.435 7.293 l -3.036 9.006 l -8.248 1.903 l -7.665 -8.868 L 45.278 36.176 z" style="stroke: none; stroke-width: 1; stroke-dasharray: none; stroke-linecap: butt; stroke-linejoin: miter; stroke-miterlimit: 10; fill: rgb(87,89,93); fill-rule: nonzero; opacity: 1;" transform=" matrix(1 0 0 1 0 0) " stroke-linecap="round" />
	<path d="M 61.415 18.601 c 0.363 -0.365 0.721 -0.73 1.1 -1.095 c -0.455 0 -0.907 0.012 -1.356 0.034 L 61.415 18.601 z" style="stroke: none; stroke-width: 1; stroke-dasharray: none; stroke-linecap: butt; stroke-linejoin: miter; stroke-miterlimit: 10; fill: rgb(63,64,66); fill-rule: nonzero; opacity: 1;" transform=" matrix(1 0 0 1 0 0) " stroke-linecap="round" />
	<path d="M 49.974 53.627 v 7.237 l -6.372 4.081 c 0.465 0.441 0.941 0.872 1.437 1.281 c 0 0 0 0 0 0 l 5.872 -3.761 l 4.465 1.329 c -3.124 -4.621 -5.134 -9.202 -6.041 -13.742 l -6.004 -6.946 l 1.947 -6.93 l 5.127 -1.066 c 0.239 -0.687 0.502 -1.373 0.794 -2.058 l -6.261 1.301 L 40.5 28.528 c -0.002 0.002 -0.003 0.004 -0.005 0.006 c -1.779 2.441 -3.097 4.969 -3.997 7.576 c -0.029 0.085 -0.058 0.171 -0.087 0.256 c -0.031 0.092 -0.064 0.183 -0.093 0.275 c -0.049 0.153 -0.095 0.308 -0.141 0.462 c -0.082 0.273 -0.16 0.548 -0.234 0.824 c -0.002 0.006 -0.004 0.012 -0.005 0.018 c -0.028 0.105 -0.056 0.21 -0.083 0.316 c -0.093 0.37 -0.18 0.742 -0.258 1.118 c -0.007 0.035 -0.016 0.069 -0.023 0.103 c -0.088 0.431 -0.166 0.866 -0.233 1.305 c -0.007 0.045 -0.012 0.091 -0.019 0.136 c -0.05 0.34 -0.092 0.682 -0.13 1.026 c -0.002 0.02 -0.006 0.041 -0.008 0.061 c -0.016 0.145 -0.029 0.291 -0.042 0.436 c -0.022 0.243 -0.04 0.487 -0.056 0.732 c -0.002 0.032 -0.005 0.063 -0.007 0.095 c -0.01 0.16 -0.021 0.32 -0.028 0.481 c -0.018 0.413 -0.032 0.828 -0.032 1.246 l 6.884 -0.709 L 49.974 53.627 z" style="stroke: none; stroke-width: 1; stroke-dasharray: none; stroke-linecap: butt; stroke-linejoin: miter; stroke-miterlimit: 10; fill: rgb(63,64,66); fill-rule: nonzero; opacity: 1;" transform=" matrix(1 0 0 1 0 0) " stroke-linecap="round" />
	<path d="M 61.546 72.469 c 0.322 0.011 0.644 0.025 0.969 0.025 c -0.405 -0.42 -0.791 -0.84 -1.178 -1.259 L 61.546 72.469 z" style="stroke: none; stroke-width: 1; stroke-dasharray: none; stroke-linecap: butt; stroke-linejoin: miter; stroke-miterlimit: 10; fill: rgb(63,64,66); fill-rule: nonzero; opacity: 1;" transform=" matrix(1 0 0 1 0 0) " stroke-linecap="round" />
</g>
</svg>